<?xml version="1.0" standalone="no"?>
<!DOCTYPE svg PUBLIC "-//W3C//DTD SVG 20010904//EN"
 "http://www.w3.org/TR/2001/REC-SVG-20010904/DTD/svg10.dtd">
<svg version="1.0" xmlns="http://www.w3.org/2000/svg"
 width="180.000000pt" height="180.000000pt" viewBox="0 0 180.000000 180.000000"
 preserveAspectRatio="xMidYMid meet">
<metadata>
Created by potrace 1.14, written by Peter Selinger 2001-2017
</metadata>
<g transform="translate(0.000000,180.000000) scale(0.100000,-0.100000)"
fill="#000000" stroke="none">
<path d="M602 1775 c-12 -14 -22 -32 -22 -41 0 -8 -5 -12 -10 -9 -6 4 -16 2
-23 -3 -7 -5 -36 -17 -64 -26 -36 -12 -53 -23 -53 -34 0 -9 -7 -26 -15 -36 -8
-11 -15 -27 -15 -35 -1 -9 -12 -25 -26 -36 -14 -11 -33 -27 -42 -36 -23 -20
-90 -48 -127 -51 -22 -2 -31 -9 -33 -25 -3 -19 26 -75 48 -93 3 -3 17 -21 30
-40 53 -77 217 -245 249 -255 12 -4 24 -5 26 -3 3 2 5 40 6 84 2 60 -2 88 -16
118 -25 52 -24 109 2 144 36 49 53 42 168 -72 59 -58 108 -113 109 -123 3 -18
-31 -53 -178 -188 -121 -110 -162 -151 -186 -185 -12 -17 -28 -30 -35 -30 -8
0 -47 -33 -88 -73 -42 -40 -104 -98 -139 -128 -34 -30 -72 -65 -83 -78 -10
-13 -34 -40 -52 -60 -33 -36 -33 -36 -33 -141 0 -101 0 -103 18 -81 9 13 31
38 49 57 17 19 29 34 27 34 -2 0 93 97 212 215 119 118 217 215 219 215 2 0
36 33 77 73 41 39 126 120 189 179 63 58 185 177 272 263 168 167 182 175 218
125 27 -37 30 -93 8 -134 -21 -40 -28 -181 -11 -212 6 -10 12 -13 12 -6 0 6 6
12 14 12 13 0 136 113 136 125 0 3 17 22 38 43 20 20 48 52 62 70 14 19 30 39
36 45 25 28 56 97 51 111 -4 11 -19 16 -45 16 -23 0 -45 6 -52 15 -7 8 -18 15
-25 15 -6 0 -23 9 -36 21 -13 12 -31 26 -40 33 -18 12 -63 105 -60 121 2 5 0
7 -4 3 -4 -4 -14 -1 -21 7 -7 7 -32 16 -54 20 -22 4 -40 11 -40 16 0 6 -4 7
-10 4 -5 -3 -21 12 -35 35 -35 55 -67 54 -115 -4 -19 -24 -38 -41 -42 -39 -4
2 -10 -8 -14 -22 -5 -19 -1 -32 17 -51 12 -13 28 -24 35 -24 6 0 15 -12 19
-27 3 -15 11 -30 16 -34 5 -3 1 -15 -9 -27 -11 -12 -41 -47 -68 -78 -27 -31
-70 -79 -97 -107 l-47 -51 -48 50 c-26 28 -69 76 -97 109 -27 32 -58 65 -67
73 -15 14 -15 18 -2 44 8 16 13 32 10 36 -3 5 10 14 29 21 19 7 34 15 33 19
-1 4 2 15 7 25 6 14 -4 31 -46 73 -60 60 -85 67 -117 29z"/>
<path d="M978 1147 c-58 -49 -56 -55 46 -153 51 -49 115 -109 142 -133 77 -68
376 -353 398 -380 12 -13 55 -58 96 -100 41 -42 89 -94 107 -116 l32 -40 1
107 0 106 -67 69 c-38 38 -99 95 -137 128 -37 33 -100 89 -139 125 -40 36 -87
79 -107 96 -51 46 -182 169 -259 244 -37 36 -72 66 -77 67 -6 1 -22 -8 -36
-20z"/>
<path d="M751 883 l-123 -127 30 -26 c16 -14 49 -41 73 -60 23 -19 54 -48 68
-64 14 -16 35 -37 45 -47 18 -17 20 -36 22 -210 1 -122 6 -195 13 -202 14 -14
20 -7 23 24 2 13 7 27 12 31 15 10 18 58 5 74 -7 9 -8 14 -1 14 11 0 10 40 -3
60 -5 8 -4 11 3 6 7 -4 10 1 9 14 -1 11 -4 20 -7 20 -3 0 -7 14 -8 31 -1 17 1
28 5 26 5 -3 8 11 8 31 -1 21 3 46 9 57 10 22 149 165 160 165 3 0 20 13 37
29 l30 29 -123 126 c-76 77 -132 126 -144 126 -11 -1 -70 -53 -143 -127z m217
-49 c41 -39 59 -61 54 -72 -8 -21 -103 -116 -119 -118 -13 -2 -117 96 -126
120 -6 15 63 96 82 96 5 0 11 7 15 15 10 26 31 17 94 -41z"/>
<path d="M875 120 c3 -5 11 -10 16 -10 6 0 7 5 4 10 -3 6 -11 10 -16 10 -6 0
-7 -4 -4 -10z"/>
</g>
</svg>
